<svg width="25" height="26" viewBox="0 0 25 26" fill="none" xmlns="http://www.w3.org/2000/svg">
<path d="M22.6562 4.5C23.9502 4.5 25 5.50734 25 6.75C25 7.45781 24.6533 8.12344 24.0625 8.55L13.4375 16.2C12.8809 16.5984 12.1191 16.5984 11.5625 16.2L0.9375 8.55C0.347315 8.12344 0 7.45781 0 6.75C0 5.50734 1.04932 4.5 2.34375 4.5H22.6562ZM10.625 17.4C11.7383 18.2016 13.2617 18.2016 14.375 17.4L25 9.75V19.5C25 21.1547 23.5986 22.5 21.875 22.5H3.125C1.39893 22.5 0 21.1547 0 19.5V9.75L10.625 17.4Z" fill="#6D3496"/>
</svg>
