<svg width="25" height="25" viewBox="0 0 25 25" fill="none" xmlns="http://www.w3.org/2000/svg">
<path d="M1.33932 3C0.599894 3 0 2.32801 0 1.49992C0 0.671499 0.599894 0 1.33932 0H23.6607C24.4001 0 25 0.67154 25 1.49992C25 2.32801 24.4 2.99984 23.6607 2.99984L1.33932 3Z" fill="#6D3496"/>
<path d="M1.3398 14C0.599472 14 0 13.3285 0 12.4998C0 11.6718 0.599655 11 1.33936 11H23.661C24.4005 11 25 11.6719 25 12.4998C25 13.3282 24.4003 13.9995 23.661 13.9995H1.33973L1.3398 14Z" fill="#6D3496"/>
<path d="M1.33975 25C0.59945 25 0 24.328 0 23.4996C0 22.6715 0.599633 22.0002 1.33975 22.0002L23.6603 22C24.4001 22 25 22.6715 25 23.4994C25 24.328 24.4 24.9998 23.6603 24.9998L1.33975 25Z" fill="#6D3496"/>
</svg>
