<svg width="25" height="26" viewBox="0 0 25 26" fill="none" xmlns="http://www.w3.org/2000/svg">
<path d="M12.5 0.5C5.59642 0.5 0 6.09642 0 13C0 19.9036 5.59642 25.5 12.5 25.5C19.4036 25.5 25 19.9036 25 13C25 6.09642 19.4036 0.5 12.5 0.5ZM18.294 9.00101C18.1058 10.9776 17.2919 15.7741 16.8776 17.9879C16.7024 18.9246 16.3574 19.2387 16.0234 19.2694C15.2976 19.3362 14.7463 18.7897 14.0432 18.3288C12.943 17.6077 12.3215 17.1587 11.2536 16.455C10.0195 15.6417 10.8195 15.1949 11.5228 14.4641C11.7069 14.2729 14.9052 11.3638 14.9671 11.0998C14.9748 11.0668 14.9823 10.9436 14.909 10.8789C14.8357 10.8142 14.728 10.8361 14.6502 10.8537C14.5398 10.8787 12.7823 12.0404 9.37757 14.3387C8.87875 14.6812 8.4269 14.8481 8.02203 14.8394C7.57571 14.8297 6.71719 14.587 6.07893 14.3795C5.29612 14.1251 4.67394 13.9906 4.72813 13.5584C4.75635 13.3333 5.06633 13.1031 5.65806 12.8679C9.30208 11.2803 11.732 10.2336 12.9478 9.72777C16.4192 8.28387 17.1405 8.03306 17.6106 8.0247C17.7141 8.02298 17.9453 8.04859 18.095 8.17011C18.1946 8.25668 18.2581 8.37748 18.2729 8.50862C18.2983 8.67145 18.3054 8.83661 18.294 9.00101Z" fill="#6D3496"/>
</svg>
