<svg width="25" height="26" viewBox="0 0 25 26" fill="none" xmlns="http://www.w3.org/2000/svg">
<path d="M12.5 5.56696C8.44308 5.56696 5.14509 8.86496 5.13951 12.9219C5.13951 14.3114 5.53013 15.6674 6.26674 16.8337L6.43973 17.1127L5.69754 19.8248L8.48214 19.0938L8.75 19.2556C9.87723 19.9252 11.1719 20.2824 12.4944 20.2824H12.5C16.5513 20.2824 19.9386 16.9844 19.9386 12.9275C19.9386 10.9632 19.0904 9.11607 17.7009 7.72656C16.3058 6.33147 14.4643 5.56696 12.5 5.56696ZM16.8248 16.0804C16.6406 16.5993 15.7589 17.0681 15.3348 17.1295C14.6317 17.2355 14.0848 17.1797 12.6842 16.577C10.4688 15.6172 9.01786 13.385 8.90625 13.24C8.79464 13.0949 8.00223 12.0402 8.00223 10.952C8.00223 9.86384 8.57143 9.32812 8.7779 9.10491C8.9788 8.8817 9.21875 8.82589 9.36942 8.82589C9.51451 8.82589 9.66518 8.82589 9.79353 8.83147C9.92745 8.83705 10.1116 8.78125 10.2902 9.21094C10.4743 9.65179 10.9152 10.74 10.971 10.8516C11.0268 10.9632 11.0658 11.0915 10.9877 11.2366C10.5636 12.0848 10.1116 12.0513 10.3404 12.442C11.1942 13.9096 12.048 14.4174 13.3482 15.0703C13.5714 15.1819 13.6998 15.1652 13.8281 15.0145C13.9565 14.8694 14.3806 14.3672 14.5257 14.1496C14.6708 13.9263 14.8214 13.9654 15.0223 14.0379C15.2232 14.1105 16.3114 14.6462 16.5346 14.7578C16.7578 14.8694 16.9029 14.9252 16.9587 15.0145C17.0089 15.1205 17.0089 15.567 16.8248 16.0804ZM22.3214 0.5H2.67857C1.19978 0.5 0 1.69978 0 3.17857V22.8214C0 24.3002 1.19978 25.5 2.67857 25.5H22.3214C23.8002 25.5 25 24.3002 25 22.8214V3.17857C25 1.69978 23.8002 0.5 22.3214 0.5ZM12.4944 21.7723C11.01 21.7723 9.55357 21.3984 8.26451 20.6953L3.57143 21.9286L4.82701 17.3415C4.05134 16.0022 3.64397 14.4788 3.64397 12.9163C3.64955 8.03906 7.61719 4.07143 12.4944 4.07143C14.8605 4.07143 17.0815 4.99219 18.7556 6.66629C20.4241 8.3404 21.4286 10.5614 21.4286 12.9275C21.4286 17.8047 17.3717 21.7723 12.4944 21.7723Z" fill="#6D3496"/>
</svg>
